<svg xmlns="http://www.w3.org/2000/svg" style="height: 0; width: 0; position: absolute;">
  <symbol id="carIcon" viewBox="0 0 18 18">
    <rect fill="currentColor" height="18" width="18" />
  </symbol>

  <symbol id="dragIcon" viewBox="0 0 448 512">
    <path
      d="M32 288c-17.7 0-32 14.3-32 32s14.3 32 32 32l384 0c17.7 0 32-14.3 32-32s-14.3-32-32-32L32
        288zm0-128c-17.7 0-32 14.3-32 32s14.3 32 32 32l384 0c17.7 0 32-14.3 32-32s-14.3-32-32-32L32 160z
      "
      fill="currentColor"
    />
  </symbol>

  <symbol id="anglesIcon" viewBox="0 0 512 512">
    <path
      d="M470.6 278.6c12.5-12.5 12.5-32.8 0-45.3l-160-160c-12.5-12.5-32.8-12.5-45.3 0s-12.5 32.8 0 45.3L402.7
        256 265.4 393.4c-12.5 12.5-12.5 32.8 0 45.3s32.8 12.5 45.3 0l160-160zm-352 160l160-160c12.5-12.5 12.5-32.8
        0-45.3l-160-160c-12.5-12.5-32.8-12.5-45.3 0s-12.5 32.8 0 45.3L210.7 256 73.4 393.4c-12.5 12.5-12.5 32.8 0
        45.3s32.8 12.5 45.3 0z
      "
      fill="currentColor"
    />
  </symbol>

  <symbol id="closeIcon" viewBox="0 0 384 512">
    <path
      d="M342.6 150.6c12.5-12.5 12.5-32.8 0-45.3s-32.8-12.5-45.3 0L192
        210.7 86.6 105.4c-12.5-12.5-32.8-12.5-45.3 0s-12.5 32.8 0 45.3L146.7
        256 41.4 361.4c-12.5 12.5-12.5 32.8 0 45.3s32.8 12.5 45.3 0L192 301.3
        297.4 406.6c12.5 12.5 32.8 12.5 45.3 0s12.5-32.8 0-45.3L237.3 256 342.6
        150.6z
      "
      fill="currentColor"
    />
  </symbol>

  <symbol id="editIcon" viewBox="0 0 512 512">
    <path
      d="M441 58.9L453.1 71c9.4 9.4 9.4 24.6 0 33.9L424 134.1 377.9 88 407
        58.9c9.4-9.4 24.6-9.4 33.9 0zM209.8 256.2L344 121.9 390.1 168 255.8 302.2c-2.9
        2.9-6.5 5-10.4 6.1l-58.5 16.7 16.7-58.5c1.1-3.9 3.2-7.5 6.1-10.4zM373.1 25L175.8
        222.2c-8.7 8.7-15 19.4-18.3 31.1l-28.6 100c-2.4 8.4-.1 17.4 6.1 23.6s15.2 8.5
        23.6 6.1l100-28.6c11.8-3.4 22.5-9.7 31.1-18.3L487 138.9c28.1-28.1 28.1-73.7
        0-101.8L474.9 25C446.8-3.1 401.2-3.1 373.1 25zM88 64C39.4 64 0 103.4 0 152V424c0
        48.6 39.4 88 88 88H360c48.6 0 88-39.4 88-88V312c0-13.3-10.7-24-24-24s-24 10.7-24
        24V424c0 22.1-17.9 40-40 40H88c-22.1 0-40-17.9-40-40V152c0-22.1 17.9-40
        40-40H200c13.3 0 24-10.7 24-24s-10.7-24-24-24H88z
      "
      fill="currentColor"
    />
  </symbol>

  <symbol id="minusIcon" viewBox="0 0 24 24">
    <path d="M0 10h24v4h-24z" fill="currentColor" />
  </symbol>

  <symbol id="replyIcon" viewBox="0 0 576 512">
    <path
      d="M209.4 39.5c-9.1-9.6-24.3-10-33.9-.9L33.8 173.2c-19.9 18.9-19.9 50.7 0 69.6L175.5
        377.4c9.6 9.1 24.8 8.7 33.9-.9s8.7-24.8-.9-33.9L66.8 208 208.5 73.4c9.6-9.1 10-24.3 .9-33.9zM352
        64c0-12.6-7.4-24.1-19-29.2s-25-3-34.4 5.4l-160 144c-6.7 6.1-10.6 14.7-10.6 23.8s3.9 17.7
        10.6 23.8l160 144c9.4 8.5 22.9 10.6 34.4 5.4s19-16.6 19-29.2V288h32c53 0 96 43 96 96c0 30.4-12.8
        47.9-22.2 56.7c-5.5 5.1-9.8 12-9.8 19.5c0 10.9 8.8 19.7 19.7 19.7c2.8 0 5.6-.6 8.1-1.9C494.5
        467.9 576 417.3 576 304c0-97.2-78.8-176-176-176H352V64z
      "
      fill="currentColor"
    />
  </symbol>

  <symbol id="satelliteIcon" viewBox="0 0 512 512">
    <path
      d="M233 7c-9.4-9.4-24.6-9.4-33.9 0l-96 96c-9.4 9.4-9.4 24.6 0 33.9l89.4
        89.4-15.5 15.5C152.3 230.4 124.9 224 96 224c-31.7 0-61.5 7.7-87.8 21.2c-9
        4.7-10.3 16.7-3.1 23.8L112.7 376.7 96.3 393.1c-2.6-.7-5.4-1.1-8.3-1.1c-17.7
        0-32 14.3-32 32s14.3 32 32 32s32-14.3 32-32c0-2.9-.4-5.6-1.1-8.3l16.4-16.4L242.9
        506.9c7.2 7.2 19.2 5.9 23.8-3.1C280.3 477.5 288 447.7 288
        416c0-28.9-6.4-56.3-17.8-80.9l15.5-15.5L375 409c9.4 9.4 24.6 9.4 33.9 0l96-96c9.4-9.4
        9.4-24.6 0-33.9l-89.4-89.4 55-55c12.5-12.5 12.5-32.8 0-45.3l-48-48c-12.5-12.5-32.8-12.5-45.3
        0l-55 55L233 7zm159 351l-72.4-72.4 62.1-62.1L454.1 296 392 358.1zM226.3 192.4L153.9 120 216
        57.9l72.4 72.4-62.1 62.1z
      "
      fill="currentColor"
    />
  </symbol>

  <symbol id="saveIcon" viewBox="0 0 448 512">
    <path
      d="M48 96V416c0 8.8 7.2 16 16 16H384c8.8 0 16-7.2
        16-16V170.5c0-4.2-1.7-8.3-4.7-11.3l33.9-33.9c12 12 18.7 28.3
        18.7 45.3V416c0 35.3-28.7 64-64 64H64c-35.3 0-64-28.7-64-64V96C0
        60.7 28.7 32 64 32H309.5c17 0 33.3 6.7 45.3 18.7l74.5 74.5-33.9
        33.9L320.8 84.7c-.3-.3-.5-.5-.8-.8V184c0 13.3-10.7 24-24 24H104c-13.3
        0-24-10.7-24-24V80H64c-8.8 0-16 7.2-16 16zm80-16v80H272V80H128zm32
        240a64 64 0 1 1 128 0 64 64 0 1 1 -128 0z
      "
      fill="currentColor"
    />
  </symbol>

  <symbol id="targetIcon" viewBox="0 0 512 512">
    <path
      d="M256 0c17.7 0 32 14.3 32 32V64h32c12.9 0 24.6 7.8 29.6 19.8s2.2 25.7-6.9
        34.9l-64 64c-12.5 12.5-32.8 12.5-45.3 0l-64-64c-9.2-9.2-11.9-22.9-6.9-34.9s16.6-19.8
        29.6-19.8h32V32c0-17.7 14.3-32 32-32zM169.4 393.4l64-64c12.5-12.5 32.8-12.5 45.3 0l64
        64c9.2 9.2 11.9 22.9 6.9 34.9s-16.6 19.8-29.6 19.8H288v32c0 17.7-14.3 32-32
        32s-32-14.3-32-32V448H192c-12.9 0-24.6-7.8-29.6-19.8s-2.2-25.7 6.9-34.9zM32
        224H64V192c0-12.9 7.8-24.6 19.8-29.6s25.7-2.2 34.9 6.9l64 64c12.5 12.5 12.5 32.8 0
        45.3l-64 64c-9.2 9.2-22.9 11.9-34.9 6.9s-19.8-16.6-19.8-29.6V288H32c-17.7
        0-32-14.3-32-32s14.3-32 32-32zm297.4 54.6c-12.5-12.5-12.5-32.8 0-45.3l64-64c9.2-9.2
        22.9-11.9 34.9-6.9s19.8 16.6 19.8 29.6v32h32c17.7 0 32 14.3 32 32s-14.3 32-32 32H448v32c0
        12.9-7.8 24.6-19.8 29.6s-25.7 2.2-34.9-6.9l-64-64zM256 224a32 32 0 1 1 0 64 32 32
        0 1 1 0-64z
      "
      fill="currentColor"
    />
  </symbol>
  
  <symbol id="trashIcon" viewBox="0 0 448 512">
    <path
      d="M170.5 51.6L151.5 80h145l-19-28.4c-1.5-2.2-4-3.6-6.7-3.6H177.1c-2.7
        0-5.2 1.3-6.7 3.6zm147-26.6L354.2 80H368h48 8c13.3 0 24 10.7 24 24s-10.7 24-24
        24h-8V432c0 44.2-35.8 80-80 80H112c-44.2
        0-80-35.8-80-80V128H24c-13.3 0-24-10.7-24-24S10.7 80 24 80h8H80 93.8l36.7-55.1C140.9
        9.4 158.4 0 177.1 0h93.7c18.7 0 36.2 9.4 46.6 24.9zM80 128V432c0 17.7 14.3 32 32
        32H336c17.7 0 32-14.3 32-32V128H80zm80 64V400c0 8.8-7.2 16-16
        16s-16-7.2-16-16V192c0-8.8 7.2-16 16-16s16 7.2 16 16zm80 0V400c0 8.8-7.2 16-16
        16s-16-7.2-16-16V192c0-8.8 7.2-16 16-16s16 7.2 16 16zm80 0V400c0 8.8-7.2 16-16
        16s-16-7.2-16-16V192c0-8.8 7.2-16 16-16s16 7.2 16 16z
      "
      fill="currentColor"
    />
  </symbol>

  <symbol id="uploadIcon" viewBox="0 0 384 512">
    <path
      d="M64 0C28.7 0 0 28.7 0 64V448c0 35.3 28.7 64 64 64H320c35.3 0 64-28.7 
        64-64V160H256c-17.7 0-32-14.3-32-32V0H64zM256 0V128H384L256 0zM216 408c0 13.3-10.7 
        24-24 24s-24-10.7-24-24V305.9l-31 31c-9.4 9.4-24.6 9.4-33.9 0s-9.4-24.6 0-33.9l72-72c9.4-9.4 
        24.6-9.4 33.9 0l72 72c9.4 9.4 9.4 24.6 0 33.9s-24.6 9.4-33.9 0l-31-31V408z
      "
      fill="currentColor"
    />
  </symbol>

  <symbol id="pauseIcon" viewBox="0 0 320 512">
    <path
      d="M48 64C21.5 64 0 85.5 0 112V400c0 26.5 21.5 48 48 48H80c26.5 0 48-21.5 
        48-48V112c0-26.5-21.5-48-48-48H48zm192 0c-26.5 0-48 21.5-48 48V400c0 26.5 21.5 48 48 
        48h32c26.5 0 48-21.5 48-48V112c0-26.5-21.5-48-48-48H240z
      "
      fill="currentColor"
    />
  </symbol>
</svg>